<?xml version="1.0" encoding="UTF-8" standalone="no"?>
<!DOCTYPE svg PUBLIC "-//W3C//DTD SVG 1.1//EN"
 "http://www.w3.org/Graphics/SVG/1.1/DTD/svg11.dtd">
<!-- Generated by graphviz version 2.43.0 (0)
 -->
<!-- Title: snakemake_dag Pages: 1 -->
<svg width="545pt" height="260pt"
 viewBox="0.00 0.00 545.00 260.00" xmlns="http://www.w3.org/2000/svg" xmlns:xlink="http://www.w3.org/1999/xlink">
<g id="graph0" class="graph" transform="scale(1 1) rotate(0) translate(4 256)">
<title>snakemake_dag</title>
<polygon fill="white" stroke="transparent" points="-4,4 -4,-256 541,-256 541,4 -4,4"/>
<!-- 1 -->
<g id="node1" class="node">
<title>1</title>
<path fill="none" stroke="#88d856" stroke-width="2" d="M326,-36C326,-36 211,-36 211,-36 205,-36 199,-30 199,-24 199,-24 199,-12 199,-12 199,-6 205,0 211,0 211,0 326,0 326,0 332,0 338,-6 338,-12 338,-12 338,-24 338,-24 338,-30 332,-36 326,-36"/>
<text text-anchor="middle" x="268.5" y="-15.5" font-family="sans" font-size="10.00">merge_taxa_with_counts</text>
</g>
<!-- 2 -->
<g id="node2" class="node">
<title>2</title>
<path fill="none" stroke="#d8bc56" stroke-width="2" d="M290.5,-108C290.5,-108 246.5,-108 246.5,-108 240.5,-108 234.5,-102 234.5,-96 234.5,-96 234.5,-84 234.5,-84 234.5,-78 240.5,-72 246.5,-72 246.5,-72 290.5,-72 290.5,-72 296.5,-72 302.5,-78 302.5,-84 302.5,-84 302.5,-96 302.5,-96 302.5,-102 296.5,-108 290.5,-108"/>
<text text-anchor="middle" x="268.5" y="-87.5" font-family="sans" font-size="10.00">run_dada2</text>
</g>
<!-- 2&#45;&gt;1 -->
<g id="edge1" class="edge">
<title>2&#45;&gt;1</title>
<path fill="none" stroke="grey" stroke-width="2" d="M268.5,-71.7C268.5,-63.98 268.5,-54.71 268.5,-46.11"/>
<polygon fill="grey" stroke="grey" stroke-width="2" points="272,-46.1 268.5,-36.1 265,-46.1 272,-46.1"/>
</g>
<!-- 3 -->
<g id="node3" class="node">
<title>3</title>
<path fill="none" stroke="#d85656" stroke-width="2" d="M155,-180C155,-180 120,-180 120,-180 114,-180 108,-174 108,-168 108,-168 108,-156 108,-156 108,-150 114,-144 120,-144 120,-144 155,-144 155,-144 161,-144 167,-150 167,-156 167,-156 167,-168 167,-168 167,-174 161,-180 155,-180"/>
<text text-anchor="middle" x="137.5" y="-159.5" font-family="sans" font-size="10.00">cutadapt</text>
</g>
<!-- 3&#45;&gt;2 -->
<g id="edge2" class="edge">
<title>3&#45;&gt;2</title>
<path fill="none" stroke="grey" stroke-width="2" d="M167.23,-145.12C185.08,-135.57 208.05,-123.3 227.61,-112.85"/>
<polygon fill="grey" stroke="grey" stroke-width="2" points="229.43,-115.84 236.6,-108.04 226.13,-109.67 229.43,-115.84"/>
</g>
<!-- 4 -->
<g id="node4" class="node">
<title>4</title>
<path fill="none" stroke="#56d88a" stroke-width="2" d="M155,-252C155,-252 12,-252 12,-252 6,-252 0,-246 0,-240 0,-240 0,-228 0,-228 0,-222 6,-216 12,-216 12,-216 155,-216 155,-216 161,-216 167,-222 167,-228 167,-228 167,-240 167,-240 167,-246 161,-252 155,-252"/>
<text text-anchor="middle" x="83.5" y="-237" font-family="sans" font-size="10.00">d2_filter_and_trim</text>
<text text-anchor="middle" x="83.5" y="-226" font-family="sans" font-size="10.00">sample_number: 3550&#45;097&#45;0&#45;1</text>
</g>
<!-- 4&#45;&gt;3 -->
<g id="edge5" class="edge">
<title>4&#45;&gt;3</title>
<path fill="none" stroke="grey" stroke-width="2" d="M96.85,-215.7C103.26,-207.39 111.06,-197.28 118.11,-188.14"/>
<polygon fill="grey" stroke="grey" stroke-width="2" points="120.97,-190.16 124.31,-180.1 115.43,-185.88 120.97,-190.16"/>
</g>
<!-- 5 -->
<g id="node5" class="node">
<title>5</title>
<path fill="none" stroke="#d85656" stroke-width="2" d="M286,-180C286,-180 251,-180 251,-180 245,-180 239,-174 239,-168 239,-168 239,-156 239,-156 239,-150 245,-144 251,-144 251,-144 286,-144 286,-144 292,-144 298,-150 298,-156 298,-156 298,-168 298,-168 298,-174 292,-180 286,-180"/>
<text text-anchor="middle" x="268.5" y="-159.5" font-family="sans" font-size="10.00">cutadapt</text>
</g>
<!-- 5&#45;&gt;2 -->
<g id="edge3" class="edge">
<title>5&#45;&gt;2</title>
<path fill="none" stroke="grey" stroke-width="2" d="M268.5,-143.7C268.5,-135.98 268.5,-126.71 268.5,-118.11"/>
<polygon fill="grey" stroke="grey" stroke-width="2" points="272,-118.1 268.5,-108.1 265,-118.1 272,-118.1"/>
</g>
<!-- 6 -->
<g id="node6" class="node">
<title>6</title>
<path fill="none" stroke="#56d88a" stroke-width="2" d="M340,-252C340,-252 197,-252 197,-252 191,-252 185,-246 185,-240 185,-240 185,-228 185,-228 185,-222 191,-216 197,-216 197,-216 340,-216 340,-216 346,-216 352,-222 352,-228 352,-228 352,-240 352,-240 352,-246 346,-252 340,-252"/>
<text text-anchor="middle" x="268.5" y="-237" font-family="sans" font-size="10.00">d2_filter_and_trim</text>
<text text-anchor="middle" x="268.5" y="-226" font-family="sans" font-size="10.00">sample_number: 3550&#45;098&#45;0&#45;1</text>
</g>
<!-- 6&#45;&gt;5 -->
<g id="edge6" class="edge">
<title>6&#45;&gt;5</title>
<path fill="none" stroke="grey" stroke-width="2" d="M268.5,-215.7C268.5,-207.98 268.5,-198.71 268.5,-190.11"/>
<polygon fill="grey" stroke="grey" stroke-width="2" points="272,-190.1 268.5,-180.1 265,-190.1 272,-190.1"/>
</g>
<!-- 7 -->
<g id="node7" class="node">
<title>7</title>
<path fill="none" stroke="#d85656" stroke-width="2" d="M417,-180C417,-180 382,-180 382,-180 376,-180 370,-174 370,-168 370,-168 370,-156 370,-156 370,-150 376,-144 382,-144 382,-144 417,-144 417,-144 423,-144 429,-150 429,-156 429,-156 429,-168 429,-168 429,-174 423,-180 417,-180"/>
<text text-anchor="middle" x="399.5" y="-159.5" font-family="sans" font-size="10.00">cutadapt</text>
</g>
<!-- 7&#45;&gt;2 -->
<g id="edge4" class="edge">
<title>7&#45;&gt;2</title>
<path fill="none" stroke="grey" stroke-width="2" d="M369.77,-145.12C351.92,-135.57 328.95,-123.3 309.39,-112.85"/>
<polygon fill="grey" stroke="grey" stroke-width="2" points="310.87,-109.67 300.4,-108.04 307.57,-115.84 310.87,-109.67"/>
</g>
<!-- 8 -->
<g id="node8" class="node">
<title>8</title>
<path fill="none" stroke="#56d88a" stroke-width="2" d="M525,-252C525,-252 382,-252 382,-252 376,-252 370,-246 370,-240 370,-240 370,-228 370,-228 370,-222 376,-216 382,-216 382,-216 525,-216 525,-216 531,-216 537,-222 537,-228 537,-228 537,-240 537,-240 537,-246 531,-252 525,-252"/>
<text text-anchor="middle" x="453.5" y="-237" font-family="sans" font-size="10.00">d2_filter_and_trim</text>
<text text-anchor="middle" x="453.5" y="-226" font-family="sans" font-size="10.00">sample_number: 3550&#45;099&#45;0&#45;1</text>
</g>
<!-- 8&#45;&gt;7 -->
<g id="edge7" class="edge">
<title>8&#45;&gt;7</title>
<path fill="none" stroke="grey" stroke-width="2" d="M440.15,-215.7C433.74,-207.39 425.94,-197.28 418.89,-188.14"/>
<polygon fill="grey" stroke="grey" stroke-width="2" points="421.57,-185.88 412.69,-180.1 416.03,-190.16 421.57,-185.88"/>
</g>
</g>
</svg>
